{"title":"The Honourable Woman Mini-Series 1080p Web-DL ReEnc-DeeJayAhmed","uid":13278189,"size":5809685893,"categoryP":"video","categoryS":"hd___tv_shows","magnet":"?xt=urn:btih:ccc4c3cd31e07d3ff41a5d104b5f9aad36fe5d2d&amp;dn=The+Honourable+Woman+Mini-Series+1080p+Web-DL+ReEnc-DeeJayAhmed&amp;tr=udp%3A%2F%2Ftracker.leechers-paradise.org%3A6969&amp;tr=udp%3A%2F%2Fzer0day.ch%3A1337&amp;tr=udp%3A%2F%2Fopen.demonii.com%3A1337&amp;tr=udp%3A%2F%2Ftracker.coppersurfer.tk%3A6969&amp;tr=udp%3A%2F%2Fexodus.desync.com%3A6969","seeders":1,"leechers":1,"uploader":"DeeJayPirate","files":18,"time":1453461141,"description":"DeeJayAhmed  \nhttps://www.DeeJayAhmed.com\r\r\nKeep Seeding!!=)) \r\nDo Comment On The A/V Quality Considering The Size Of The File..!\r\n\r\nVideo \r\nID : 1 \r\nFormat : AVC \r\nFormat/Info : Advanced Video Codec \r\nFormat profile :    \r\nFormat settings, CABAC : Yes \r\nFormat settings, ReFrames : 4 frames \r\nCodec ID : V_MPEG4/ISO/AVC \r\nDuration : 58mn 11s \r\nBit rate : 1 576 Kbps \r\nWidth : 1 912 pixels \r\nHeight : 1 072 pixels \r\nDisplay aspect ratio : 16:9 \r\nFrame rate mode : Constant \r\nFrame rate : 25.000 fps \r\nColor space : YUV \r\nChroma subsampling : 4:2:0 \r\nBit depth : 8 bits \r\nScan type : Progressive \r\nBits/(Pixel*Frame) : 0.031 \r\nStream size : 656 MiB (95%) \r\nDefault : Yes \r\nForced : No \r\n\r\nAudio \r\nID : 2 \r\nFormat : AAC \r\nFormat/Info : Advanced Audio Codec \r\nFormat profile : HE-AAC / LC \r\nCodec ID : A_AAC \r\nDuration : 58mn 11s \r\nBit rate : 78.6 Kbps \r\nChannel(s) : 2 channels \r\nChannel positions : Front: L R \r\nSampling rate : 48.0 KHz / 24.0 KHz \r\nFrame rate : 23.438 fps (1024 spf) \r\nCompression mode : Lossy \r\nDelay relative to video : 31ms \r\nStream size : 32.7 MiB (5%) \r\nLanguage : English \r\nDefault : Yes \r\nForced : No","torrent":{"xt":"urn:btih:ccc4c3cd31e07d3ff41a5d104b5f9aad36fe5d2d","amp;dn":"The+Honourable+Woman+Mini-Series+1080p+Web-DL+ReEnc-DeeJayAhmed","amp;tr":["udp%3A%2F%2Ftracker.leechers-paradise.org%3A6969","udp%3A%2F%2Fzer0day.ch%3A1337","udp%3A%2F%2Fopen.demonii.com%3A1337","udp%3A%2F%2Ftracker.coppersurfer.tk%3A6969","udp%3A%2F%2Fexodus.desync.com%3A6969"],"infoHash":"ccc4c3cd31e07d3ff41a5d104b5f9aad36fe5d2d","infoHashBuffer":{"type":"Buffer","data":[204,196,195,205,49,224,125,63,244,26,93,16,75,95,154,173,54,254,93,45]},"announce":[],"urlList":[]}}